<svg id="Layer_1" data-name="Layer 1" xmlns="http://www.w3.org/2000/svg" xmlns:xlink="http://www.w3.org/1999/xlink" viewBox="0 0 804.27 488.65"><defs><style>.cls-1{stroke:#000;stroke-width:26.02px;fill:url(#linear-gradient);}</style><linearGradient id="linear-gradient" x1="72.35" y1="235.59" x2="762.12" y2="633.83" gradientUnits="userSpaceOnUse"><stop offset="0" stop-color="#fa7901"/><stop offset="0.22" stop-color="#ce9e0d"/><stop offset="0.42" stop-color="#adba17"/><stop offset="0.53" stop-color="#a1c51a"/><stop offset="0.67" stop-color="#c7a40f"/><stop offset="0.8" stop-color="#e68b07"/><stop offset="0.92" stop-color="#f87b02"/><stop offset="1" stop-color="#ff7500"/></linearGradient></defs><title>Logo_Syscase_SymbolOnly_blackborder</title><path class="cls-1" d="M654.49,396.81c-59.77-23.14-86.12-43.06-86.12-83.55,0-6.41,2.57-23.48,15.17-39.91,11.7-15.27,34.59-30.54,66.45-25,39.31,6.83,94.39,76.74,107.16,95.44L814.62,248c-33.52-29.54-94.33-59.45-161.25-55.08-55.14,3.6-118.42,20.29-147.68,73.44C488.83,297,416.61,444.28,416.61,444.28c-43.5-85.53-36.91-147.67-53-177.11-10.43-19.08-12.39-27.15-53.55-51.08C271.8,197.72,236.31,192.93,192,192.93c-84.19,0-151.67,58.65-151.67,126.12C40.3,380.1,98,417.64,168.68,442.7c58.48,22.5,81.62,45.63,81.62,86.12,0,43.7-30.67,62.44-87.87,62.44-38.55,0-93.88-46.84-118.94-62.26L40.3,637.56c23.13,15.43,74,17.57,115.75,17.57,102.18,0,233.09-43.91,231.5-130.12C386.37,461.4,270.22,425.35,197,397.07c-59.77-23.13-86.12-43.05-86.12-83.54,0-29.56,22.49-64.91,81.62-64.91a175.52,175.52,0,0,1,47.81,6.6c20,5.67,46.56,16.7,56.27,35.1,27.1,51.3,66.93,162.88,84.62,196.73,22.35,42.75,47,106.42,98.09,137.1,42.41,25.48,92.76,31,134.53,31,102.18,0,200.84-65.68,200.84-132.52C814.62,459,727.75,425.08,654.49,396.81ZM606,602.45c-63.3,0-123.39-21.56-139.35-62.27-29.53-75.3,53-184.79,53-184.79,18.12,31,56,70.15,95.94,88.89,56.71,26.63,78.23,43.43,78.23,83.92C693.82,571.9,663.2,602.45,606,602.45Z" transform="translate(-27.08 -179.49)"/></svg>