<svg id="Layer_1" data-name="Layer 1" xmlns="http://www.w3.org/2000/svg" xmlns:xlink="http://www.w3.org/1999/xlink" viewBox="0 0 1364.06 488.65"><defs><style>.cls-1,.cls-2{stroke:#fff;}.cls-1{stroke-width:26.02px;fill:url(#linear-gradient);}.cls-2{fill:#a1c51a;stroke-width:20px;}</style><linearGradient id="linear-gradient" x1="70.29" y1="519.06" x2="760.06" y2="917.3" gradientUnits="userSpaceOnUse"><stop offset="0" stop-color="#fa7901"/><stop offset="0.22" stop-color="#ce9e0d"/><stop offset="0.42" stop-color="#adba17"/><stop offset="0.53" stop-color="#a1c51a"/><stop offset="0.67" stop-color="#c7a40f"/><stop offset="0.8" stop-color="#e68b07"/><stop offset="0.92" stop-color="#f87b02"/><stop offset="1" stop-color="#ff7500"/></linearGradient></defs><title>Logo_Syscase_complete_whiteborder</title><path class="cls-1" d="M652.43,680.27c-59.77-23.13-86.12-43.06-86.12-83.54,0-6.42,2.57-23.48,15.17-39.91,11.7-15.27,34.59-30.54,66.45-25,39.3,6.84,94.39,76.74,107.16,95.44l57.47-95.79C779,501.94,718.23,472,651.31,476.39c-55.14,3.6-118.42,20.29-147.68,73.44-16.86,30.64-89.08,177.91-89.08,177.91-43.51-85.52-36.91-147.67-53-177.11-10.43-19.08-12.39-27.14-53.55-51.07-38.25-18.38-73.74-23.17-118.08-23.17-84.19,0-151.67,58.65-151.67,126.13,0,61.05,57.69,98.58,128.38,123.65,58.48,22.49,81.62,45.63,81.62,86.11,0,43.7-30.67,62.45-87.87,62.45-38.56,0-93.88-46.84-118.94-62.27L38.24,921c23.13,15.42,74,17.56,115.75,17.56,102.18,0,233.09-43.9,231.5-130.12-1.18-63.61-117.33-99.65-190.59-127.93-59.77-23.14-86.12-43.06-86.12-83.54,0-29.57,22.49-64.91,81.62-64.91a175.19,175.19,0,0,1,47.81,6.6c20,5.66,46.55,16.69,56.27,35.09,27.1,51.31,66.93,162.89,84.62,196.73,22.35,42.75,47,106.42,98.09,137.11,42.41,25.48,92.76,31,134.53,31,102.18,0,200.84-65.68,200.84-132.51C812.56,742.46,725.69,708.55,652.43,680.27ZM604,885.92c-63.3,0-123.39-21.57-139.35-62.28-29.53-75.3,53-184.79,53-184.79,18.12,31,56,70.15,95.94,88.89,56.71,26.64,78.23,43.44,78.23,83.93C691.76,855.37,661.14,885.92,604,885.92Z" transform="translate(-25.02 -462.95)"/><path class="cls-2" d="M1277.13,737.45c-56-.4-91.48,40.36-90.15,103.65v.08a2.37,2.37,0,0,1-4.22,1.48c-8.4-10.26-21.56-18.18-39.37-25-25-9.53-36.54-16.68-36.54-32.56,0-14.3,11.52-26.21,32.17-26.21a75.51,75.51,0,0,1,30,6.24,10.16,10.16,0,0,0,14.17-9.35v-4.27c0-5.71,2.66-16.46-2.71-18.41-9.67-3.53-27.74-.42-40.7-.42-41.3,0-66.32,25.41-66.32,56.39,0,23,17.64,38.81,50.83,54.41,15.45,7.25,25.92,16.94,25.92,33.62,0,15.88-15.14,22.25-28.41,24.09-11.42,1.59-42.55,1.64-59.94-9.55-8.31-5.34-15.85-11.35-16.06-21.14l7.87-122.68c0-2.88,1.63-11.45-11.54-15.14h-24.59a10,10,0,0,0-10,10v5.1a5.22,5.22,0,0,1-8,4.44,79.54,79.54,0,0,0-42.38-12.28c-47.4,0-85.83,42.21-85.83,94.29a102.23,102.23,0,0,0,6,34.74,11,11,0,0,1-5.91,13.75c-7.86,3.5-17.35,8.11-20.39,9.1a84.48,84.48,0,0,1-26.58,4.07c-33.41,0-58.46-24-58.46-63,0-35.14,20.88-63.67,59.5-63.67A82.49,82.49,0,0,1,851,772.84a10.67,10.67,0,0,0,13.51-7.14l.82-2.78c1.64-5.59,6-38.19,1-41.25-7.28-4.48-22.91,2.44-43.36,6.55-53.9,10.82-95.2,55.13-95.2,107,0,51.49,41.23,99.07,92,99.07,16.22,0,37.74-8.09,45.94-13.68,3.6-2.46,13.77-8.1,21.65-13.49a13.49,13.49,0,0,1,16.49,1,80.78,80.78,0,0,0,53.37,20.44c15.4,0,29.71-4.68,42.34-12.25,8-4.81,16-19,19.15-16.26,15.66,13.54,40.7,28.29,59.5,31.53,20.68,3.57,28.86,3.57,43.7,1.73,36-4.48,60.25-15,68.59-38.13a5,5,0,0,1,9.07-.8c15.19,27.31,45.64,40.7,84,40.7,22.57,0,79.91-3.17,92.41-7.22,6.24-2,2.36-20.4-6-28.36-11.45-10.91-25.9-15.73-33.22-13.53C1326.36,889,1303.54,903,1286.26,903c-30.92,0-58.11-7.24-64.52-43.48-1.4-7.93,4.4-10.51,12.45-10.51a339,339,0,0,0,51.55,5.18,227.23,227.23,0,0,0,59.18-6c9.84-2.95,27.55-8.46,28.36-28.92C1374.7,783.94,1354.19,738,1277.13,737.45ZM1007.6,843.11c0,27.36-21.65,50.14-49,50.79l-1.34,0c-32.14,0-58.2-27.41-58.2-61.22s26.06-61.22,58.2-61.22a55.85,55.85,0,0,1,10.49,1c23.25,4.46,39.86,25.13,39.86,48.8Zm301.26-23.85H1236.8a12.88,12.88,0,0,1-12.23-17c6.84-20.14,20.79-35.36,48.25-35.36,31.09,0,45.07,17.15,48.74,37.19A12.88,12.88,0,0,1,1308.86,819.26Z" transform="translate(-25.02 -462.95)"/></svg>