<svg id="Layer_1" data-name="Layer 1" xmlns="http://www.w3.org/2000/svg" xmlns:xlink="http://www.w3.org/1999/xlink" viewBox="0 0 804.27 488.65"><defs><style>.cls-1{stroke:#fff;stroke-width:26.02px;fill:url(#linear-gradient);}</style><linearGradient id="linear-gradient" x1="70.08" y1="236.98" x2="759.85" y2="635.22" gradientUnits="userSpaceOnUse"><stop offset="0" stop-color="#fa7901"/><stop offset="0.22" stop-color="#ce9e0d"/><stop offset="0.42" stop-color="#adba17"/><stop offset="0.53" stop-color="#a1c51a"/><stop offset="0.67" stop-color="#c7a40f"/><stop offset="0.8" stop-color="#e68b07"/><stop offset="0.92" stop-color="#f87b02"/><stop offset="1" stop-color="#ff7500"/></linearGradient></defs><title>logo_syscase_symbolonly_whiteborder</title><path class="cls-1" d="M652.22,398.19c-59.76-23.13-86.11-43.06-86.11-83.54,0-6.42,2.57-23.48,15.16-39.91,11.7-15.27,34.59-30.54,66.46-25,39.3,6.84,94.38,76.74,107.15,95.44l57.48-95.79c-33.53-29.54-94.34-59.45-161.25-55.08-55.14,3.6-118.42,20.29-147.68,73.44-16.87,30.64-89.08,177.91-89.08,177.91-43.51-85.52-36.92-147.67-53-177.11-10.43-19.08-12.39-27.14-53.54-51.07-38.26-18.38-73.74-23.17-118.08-23.17C105.52,194.31,38,253,38,320.44,38,381.49,95.72,419,166.42,444.09,224.9,466.58,248,489.71,248,530.2c0,43.7-30.66,62.45-87.86,62.45-38.56,0-93.88-46.84-118.94-62.27L38,639c23.14,15.42,74,17.56,115.75,17.56,102.18,0,233.1-43.9,231.5-130.12C384.11,462.78,268,426.74,194.69,398.46c-59.76-23.14-86.11-43.06-86.11-83.54,0-29.57,22.49-64.91,81.61-64.91a175.21,175.21,0,0,1,47.82,6.6c20,5.66,46.55,16.69,56.27,35.09,27.1,51.3,66.92,162.89,84.62,196.73,22.35,42.75,47,106.42,98.08,137.11,42.41,25.48,92.77,31,134.54,31,102.18,0,200.84-65.68,200.84-132.51C812.36,460.38,725.49,426.47,652.22,398.19ZM603.74,603.84c-63.3,0-123.38-21.57-139.35-62.28-29.52-75.3,53-184.79,53-184.79,18.11,31,56,70.15,95.93,88.89,56.72,26.64,78.23,43.44,78.23,83.93C691.55,573.29,660.94,603.84,603.74,603.84Z" transform="translate(-24.82 -180.87)"/></svg>